PathFileType	4	(X/Y/Z)	C:\Users\Basilio\Documents\Thesis Gigler\squatting_fais\c3dfiles\047\SLS_pre_back4\markers_experimental.trc
DataRate	CameraRate	NumFrames	NumMarkers	Units	OrigDataRate	OrigDataStartFrame	OrigNumFrames
200.000000	200.000000	4	61	mm	200.000000	791	1267
Frame#	Time	FHD			LBHD			RBHD			C7			T10			CLAV			LSHO			LUUPA			LMUPA			LDUPA			LLEP			LMEP			LRAD			LUL			LRFIN			RSHO			RUPA1			RMUPA			RDUPA			RLEP			RMEP			RUL			RUFIN			LASI			RASI			USACR			LSACR			RSACR			LTHI1			LTHI2			LTHI3			LTHI4			LLFC			LMFC			LTIB1			LTIB2			LTIB3			LTIB4			LLMAL			LMMAL			LMT1			LMT2			LMT5			RTHI			RTHI2			RTHI3			RTHI4			RLFC			RMFC			RTIB1			RTIB2			RTIB3			RTIB4			RLMAL			RMMAL			RHEE			RMT1			RMT2			RMT5			RRAD			*60			
		X1	Y1	Z1	X2	Y2	Z2	X3	Y3	Z3	X4	Y4	Z4	X5	Y5	Z5	X6	Y6	Z6	X7	Y7	Z7	X8	Y8	Z8	X9	Y9	Z9	X10	Y10	Z10	X11	Y11	Z11	X12	Y12	Z12	X13	Y13	Z13	X14	Y14	Z14	X15	Y15	Z15	X16	Y16	Z16	X17	Y17	Z17	X18	Y18	Z18	X19	Y19	Z19	X20	Y20	Z20	X21	Y21	Z21	X22	Y22	Z22	X23	Y23	Z23	X24	Y24	Z24	X25	Y25	Z25	X26	Y26	Z26	X27	Y27	Z27	X28	Y28	Z28	X29	Y29	Z29	X30	Y30	Z30	X31	Y31	Z31	X32	Y32	Z32	X33	Y33	Z33	X34	Y34	Z34	X35	Y35	Z35	X36	Y36	Z36	X37	Y37	Z37	X38	Y38	Z38	X39	Y39	Z39	X40	Y40	Z40	X41	Y41	Z41	X42	Y42	Z42	X43	Y43	Z43	X44	Y44	Z44	X45	Y45	Z45	X46	Y46	Z46	X47	Y47	Z47	X48	Y48	Z48	X49	Y49	Z49	X50	Y50	Z50	X51	Y51	Z51	X52	Y52	Z52	X53	Y53	Z53	X54	Y54	Z54	X55	Y55	Z55	X56	Y56	Z56	X57	Y57	Z57	X58	Y58	Z58	X59	Y59	Z59	X60	Y60	Z60	X61	Y61	Z61	

792	3.955	117.853744506836	1318.888305664063	-1128.6982421875	-63.56203842163087	1304.423950195313	-1146.844604492188	-34.16584014892579	1305.093383789063	-1001.034912109375	-115.4057388305664	1172.87060546875	-1071.328247070313	-315.2898559570313	957.8523559570315	-1011.154113769531	-17.88437652587891	1047.515991210938	-1099.481567382813	-75.11895751953126	1096.954467773438	-1246.549072265625	-67.6449432373047	949.959655761719	-1358.002197265625	-18.09786224365235	960.7557373046877	-1357.4892578125	-18.23665809631348	903.1864013671877	-1375.923461914063	46.72401428222657	869.7568969726565	-1387.595092773438	25.30058479309083	819.811218261719	-1314.183349609375	233.6686401367188	932.282653808594	-1222.29443359375	256.4693603515626	860.5208740234377	-1223.647827148438	321.4797973632813	923.9461059570315	-1223.041015625	-4.394072532653809	1101.100341796875	-950.097839355469	56.93996810913087	948.0808105468752	-852.0738525390627	96.4367599487305	955.931823730469	-879.8958129882815	105.6157379150391	898.7630615234377	-862.2224121093752	168.4802856445313	863.811462402344	-888.1185302734377	116.1823348999024	807.9796142578127	-936.1774902343752	313.4224853515626	857.125427246094	-1108.633666992188	309.2825622558594	945.362243652344	-1137.256591796875	-302.2852478027344	691.7254638671876	-1091.244384765625	-288.8810119628907	695.3927612304689	-863.671569824219	-415.9458618164064	851.8554687500002	-978.3999023437502	-442.2821655273439	830.8099365234377	-1004.665771484375	-434.6976013183595	828.4600219726565	-946.8626708984377	-345.6464233398438	619.5971679687501	-1174.6474609375	-264.0265197753907	600.3782958984376	-1176.431396484375	-234.9987487792969	636.4471435546876	-1159.800170898438	-239.6232299804688	545.9094238281251	-1182.32421875	-128.614486694336	424.9864196777345	-1160.402221679688	-91.67683410644533	435.6971130371095	-1035.94921875	-164.9764709472657	280.2712402343751	-1038.974975585938	-197.2193908691407	232.6119384765626	-1103.583251953125	-185.173828125	229.5301513671876	-1060.41455078125	-242.7959136962891	183.1475677490235	-1022.798706054688	-339.1331176757813	121.4104156494141	-1062.896118164063	-313.1968994140626	142.6388702392578	-975.0175781250002	-208.5508422851563	62.9385108947754	-991.6154785156252	-207.6021575927735	61.34308242797853	-1036.490478515625	-258.3295288085938	49.99806976318361	-1080.11865234375	-397.9363708496095	553.1171264648439	-763.8255615234376	-363.1962280273438	496.3267211914064	-759.5518188476564	-333.7379455566407	493.2010498046876	-772.0023193359377	-395.9363403320314	418.3505249023439	-753.4195556640626	-405.2895812988282	287.2640991210938	-767.6118774414064	-411.7576293945314	261.5429992675782	-897.564392089844	-511.5846252441407	226.7268676757813	-771.5019531250002	-591.4788818359376	294.9456176757813	-735.5154418945314	-590.9659423828126	247.768295288086	-741.9168701171876	-642.2708740234376	233.3936157226563	-769.6780395507815	-788.9766845703127	301.2483215332032	-735.4660644531251	-784.2449951171877	259.8154602050782	-818.9470825195315	-805.2312622070315	353.7108764648438	-798.1098632812502	-887.2319335937502	160.7382049560547	-784.412780761719	-882.9121704101565	159.2014312744141	-742.3753051757814	-895.3558349609377	221.8346405029297	-696.4260864257814	253.3465728759766	893.8210449218752	-1140.269653320313	nan	nan	nan	
793	3.96	118.1608123779297	1318.782104492188	-1128.887817382813	-63.45352172851564	1304.193237304688	-1146.919677734375	-34.02278518676759	1304.865844726563	-1001.143188476563	-115.4421920776367	1172.542358398438	-1071.344116210938	-315.1463317871094	957.7390136718752	-1011.125183105469	-17.71787834167481	1047.288818359375	-1099.645385742188	-74.85777282714845	1096.818359375	-1246.613525390625	-67.54253387451173	949.7760009765627	-1358.039672851563	-17.80248832702637	960.5903930664065	-1357.639526367188	-17.66761779785157	902.9443359375002	-1376.038452148438	46.82405090332032	869.6500244140627	-1387.686767578125	25.58950805664063	819.6587524414065	-1314.311767578125	233.8570556640626	932.2005004882815	-1222.380859375	256.6709289550782	860.4482421875002	-1223.76123046875	321.4977111816407	923.8858642578127	-1223.049682617188	-4.222961425781251	1100.98876953125	-950.1136474609377	57.08240509033205	947.8223876953127	-852.191345214844	96.59896087646487	955.7691040039065	-880.1774902343752	105.669303894043	898.5120239257815	-862.2858886718752	168.7129364013672	863.4466552734377	-888.3198852539065	116.1753463745117	807.8862304687502	-936.2572021484377	313.5112915039063	857.0321044921877	-1108.722778320313	309.3878479003907	945.2066650390627	-1137.220703125	-302.4274902343751	691.4924926757814	-1091.156372070313	-288.8732299804688	695.1546630859376	-863.571960449219	-415.9695434570314	851.726013183594	-978.287292480469	-442.2436523437501	830.703552246094	-1004.53271484375	-434.6545410156251	828.4149169921877	-946.7852172851565	-345.8059692382813	619.5222167968751	-1174.6650390625	-264.1744995117188	600.2847900390626	-1176.445556640625	-235.1906280517579	636.4413452148439	-1159.823608398438	-239.6927642822266	545.8479614257814	-1182.310546875	-128.6537780761719	424.9673767089845	-1160.591552734375	-91.5925979614258	435.6448364257814	-1036.222290039063	-164.9747772216797	280.2434082031251	-1039.064819335938	-197.2447509765626	232.5499725341797	-1103.656005859375	-185.1703033447266	229.5149536132813	-1060.453002929688	-242.8393249511719	183.1289825439453	-1022.855102539063	-339.2083740234376	121.4263458251953	-1062.881225585938	-313.2173767089844	142.6580200195313	-975.0284423828127	-208.6639862060547	62.87059402465822	-991.6277465820315	-207.8319702148438	60.6145706176758	-1036.724365234375	-258.3187561035157	49.99538421630861	-1080.122802734375	-397.9234924316407	552.9996337890626	-763.6677246093751	-363.1036071777344	496.3027954101564	-759.4097290039064	-333.6872863769532	493.0892028808595	-771.945007324219	-395.8659667968751	418.2811279296876	-753.2069091796876	-405.2379760742189	287.1265258789063	-767.2855224609376	-411.9485778808595	261.4561462402344	-897.3028564453127	-511.5069274902345	226.6947631835938	-771.2708740234377	-591.4739379882814	294.8947448730469	-735.1976928710939	-590.8623657226564	247.8095855712891	-741.6518554687501	-642.3999633789064	233.4734497070313	-768.9953613281252	-788.8809204101565	301.3594360351563	-735.1376342773439	-784.180114746094	259.7731933593751	-818.6238403320315	-805.2383422851565	353.9082336425782	-797.7701416015627	-885.7979736328127	161.8083190917969	-787.0466918945315	-882.775329589844	159.3217315673828	-741.9517822265626	-895.2672119140627	221.8220977783204	-695.9561767578126	253.5104064941407	893.7908325195315	-1140.21923828125	nan	nan	nan	
794	3.965	118.2066802978516	1318.3681640625	-1128.938110351563	-63.37598800659181	1303.936279296875	-1146.978881835938	-33.98339462280274	1304.470581054688	-1001.066711425781	-115.3667602539063	1172.387573242188	-1071.292114257813	-315.0552368164063	957.6390380859377	-1011.050415039063	-17.75907707214356	1046.912841796875	-1099.53173828125	-74.43589019775392	1096.62548828125	-1246.781127929688	-67.44869232177736	949.6697387695315	-1358.07861328125	-17.82314491271973	960.3931274414065	-1357.62255859375	-17.65505409240723	902.8282470703127	-1376.068359375	46.9389877319336	869.5271606445315	-1387.794189453125	26.04450607299805	819.619812011719	-1314.672607421875	233.9514923095704	932.048278808594	-1222.46728515625	257.3969421386719	860.1394653320315	-1223.9814453125	321.5845336914063	923.7036132812502	-1223.085327148438	-4.223655700683595	1100.636840820313	-950.0242309570315	57.36451721191408	947.551940917969	-852.2305297851565	96.77195739746097	955.385192871094	-880.0576782226565	105.8889999389649	898.2078857421877	-862.424499511719	168.6935577392578	863.267517089844	-888.4086914062502	116.2488250732422	807.736022949219	-936.3909912109377	313.7057189941407	856.9100341796877	-1109.251098632813	309.6657409667969	945.0003051757815	-1137.330200195313	-303.0328063964844	690.7493896484376	-1091.279052734375	-288.7510681152344	695.0525512695314	-863.772888183594	-415.9830932617189	851.5678710937502	-978.1329345703127	-442.2343139648439	830.5729980468752	-1004.422973632813	-433.8141479492189	828.325134277344	-947.098571777344	-345.9300537109376	619.4503173828126	-1174.658813476563	-264.2150878906251	600.2652587890626	-1176.478881835938	-235.3758239746094	636.4351196289064	-1159.836791992188	-239.8368072509766	545.8105468750001	-1182.364624023438	-128.7063751220703	424.9855041503907	-1160.74609375	-91.48900604248048	435.6424865722657	-1036.568969726563	-164.9466552734375	280.3445434570313	-1039.215942382813	-197.2283782958985	232.5030364990235	-1103.786987304688	-185.1729125976563	229.5152282714844	-1060.591552734375	-242.8431243896485	183.0992126464844	-1022.930541992188	-339.1358642578126	121.4122772216797	-1062.893432617188	-313.2072448730469	142.6740112304688	-975.0874633789065	-208.6018829345704	62.89085006713869	-991.649353027344	-207.8947906494141	60.58916091918947	-1036.72705078125	-258.3387451171876	50.01131057739259	-1080.129150390625	-397.8998413085939	552.8961181640626	-763.4381713867189	-363.0536804199219	496.2824707031251	-759.2731323242189	-333.5838012695313	492.9559326171876	-771.8892822265627	-395.8373107910157	418.2637023925782	-753.1903686523439	-405.182586669922	287.0003662109376	-767.1859130859376	-412.1058044433595	261.3214111328126	-897.1392822265627	-511.4620666503907	226.6806335449219	-771.0709228515627	-591.3602905273439	294.8258972167969	-734.9977416992189	-590.8018188476564	247.8219604492188	-741.5076293945314	-642.4067993164064	233.4063262939454	-768.6540527343752	-788.7463378906252	301.4252014160157	-734.8482666015626	-784.229431152344	259.7370605468751	-818.3211669921877	-805.2288208007815	353.7743530273438	-797.530700683594	-886.3861083984377	161.070053100586	-785.3513793945315	-882.739196777344	159.3924255371094	-740.7987670898439	-895.275085449219	221.7943725585938	-695.5632934570314	253.6221923828126	893.7535400390627	-1140.140625	nan	nan	nan	
795	3.97	118.6005096435547	1318.1884765625	-1129.109008789063	-63.25532913208009	1303.684936523438	-1147.08349609375	-33.7769889831543	1304.310791015625	-1001.256042480469	-115.14306640625	1171.9912109375	-1071.362915039063	-314.8716735839844	957.5249023437502	-1010.946960449219	-17.55387496948243	1046.67431640625	-1099.60205078125	-74.90996551513673	1096.21337890625	-1246.469970703125	-67.26757049560548	949.4025878906252	-1358.144165039063	-17.22025299072266	960.075622558594	-1357.723266601563	-17.51495933532715	902.6541137695315	-1376.136840820313	47.01848602294923	869.4072265625002	-1387.849975585938	26.21373558044434	819.4418945312502	-1314.818237304688	234.152816772461	931.9213867187502	-1222.638793945313	256.9623413085938	860.1821899414065	-1224.025390625	321.6129455566407	923.6174316406252	-1223.095092773438	-3.983034849166871	1100.430541992188	-950.1013183593752	57.3449058532715	947.1730957031252	-852.296081542969	96.82478332519534	955.026794433594	-880.1690063476565	106.0097274780274	897.8751220703127	-862.5965576171877	168.8135986328125	863.0529785156252	-888.5787353515627	116.6303176879883	807.3530883789065	-937.044372558594	313.7436523437501	856.8059692382815	-1109.1787109375	309.9245910644532	944.8767089843752	-1137.696655273438	-303.0162353515626	690.4982910156251	-1090.974853515625	-288.7285156250001	694.8472290039064	-863.399353027344	-415.9865112304689	851.5225830078127	-977.9746704101565	-442.1790771484376	830.4753417968752	-1004.2607421875	-433.7066955566407	828.2677001953127	-946.9910278320315	-346.0280456542969	619.4279785156251	-1174.660888671875	-264.4322814941407	600.2939453125001	-1176.48583984375	-235.5195922851563	636.3723754882814	-1159.831787109375	-239.9665985107422	545.8118286132814	-1182.38623046875	-128.7657775878907	425.042694091797	-1160.810791015625	-91.42506408691408	435.7507629394532	-1036.779052734375	-165.005859375	280.3007202148438	-1039.300903320313	-197.2346649169922	232.4576873779297	-1103.84423828125	-185.2147979736328	229.5225372314454	-1060.606567382813	-242.849349975586	183.16748046875	-1022.941528320313	-339.1508483886719	121.421630859375	-1062.938110351563	-313.2200317382813	142.7101593017578	-975.093688964844	-208.6226348876954	62.86585998535158	-991.6697998046877	-207.6107177734376	61.35451507568361	-1036.496215820313	-258.3201599121094	50.0116539001465	-1080.114868164063	-397.869842529297	552.8395996093751	-763.2529907226564	-363.0227966308594	496.2163696289064	-759.1584472656251	-333.4456787109376	492.794647216797	-771.895935058594	-395.7757568359376	418.2138977050782	-753.0197753906251	-405.0320129394532	286.8917541503907	-767.1525268554689	-412.2880859375001	261.1762695312501	-896.9671630859377	-511.4617309570314	226.5963287353516	-770.6888427734377	-591.2319946289064	294.8226928710938	-734.6345214843751	-590.7721557617189	247.7644195556641	-741.2879638671876	-642.3005981445314	233.3724212646485	-768.2800903320315	-788.607360839844	301.4797668457032	-734.6214599609376	-784.1851196289065	259.8137512207032	-817.9838867187502	-805.1870727539065	353.8339843750001	-797.1927490234377	-886.3318481445315	161.0201110839844	-784.9187622070315	-882.7197875976565	159.537094116211	-740.8853149414064	-895.2012939453127	221.8544006347657	-695.1184082031251	253.8478240966797	893.7317504882815	-1140.25634765625	nan	nan	nan	
